<?xml version="1.0" encoding="UTF-8"?> <svg xmlns="http://www.w3.org/2000/svg" xmlns:xlink="http://www.w3.org/1999/xlink" width="523px" height="209px" viewBox="0 0 523 209" version="1.1"><title>HealthNews_cmyk</title><g id="Page-1" stroke="none" stroke-width="1" fill="none" fill-rule="evenodd"><g id="HealthNews_cmyk"><path d="M113.896,90.621 C113.896,58.984 130.172,31.162 154.796,15.026 C139.642,6.309 122.087,1.298 103.351,1.298 C46.272,1.298 0,47.569 0,104.649 C0,161.728 46.272,207.999 103.351,207.999 C132.322,207.999 158.493,196.064 177.259,176.861 C140.543,165.388 113.896,131.118 113.896,90.621" id="Fill-1" fill="#129489"></path><path d="M204.233,0.284 C185.979,0.284 169.002,5.716 154.796,15.026 C185.805,32.865 206.702,66.305 206.702,104.649 C206.702,132.757 195.466,158.229 177.259,176.861 C185.778,179.523 194.837,180.959 204.233,180.959 C254.126,180.959 294.571,140.514 294.571,90.621 C294.571,40.729 254.126,0.284 204.233,0.284" id="Fill-2" fill="#88B33F"></path><path d="M154.796,15.026 C130.172,31.162 113.896,58.984 113.896,90.621 C113.896,131.118 140.543,165.388 177.259,176.861 C195.466,158.229 206.702,132.757 206.702,104.649 C206.702,66.305 185.805,32.865 154.796,15.026" id="Fill-3" fill="#4B8180"></path><path d="M79.452,51.198 C79.452,42.952 85.317,36.352 93.749,36.352 C102.178,36.352 108.043,42.952 108.043,51.198 L108.043,84.186 L108.41,84.186 C114.275,80.521 121.604,77.04 132.601,77.04 C152.395,77.04 168.153,87.302 168.153,110.76 L168.153,163.726 C168.153,171.975 162.288,178.572 153.86,178.572 C145.43,178.572 139.566,171.975 139.566,163.726 L139.566,118.457 C139.566,108.563 133.701,101.231 123.804,101.231 C113.907,101.231 108.043,108.563 108.043,118.457 L108.043,163.726 C108.043,171.975 102.178,178.572 93.749,178.572 C85.317,178.572 79.452,171.975 79.452,163.726 L79.452,51.198" id="Fill-4" fill="#FFFFFE"></path><path d="M167.906994,93.729 C167.9,85.481 173.76,78.879 182.192,78.872 C189.889,78.866 194.657,83.811 196.493,88.023 C201.068,80.873 208.762,77.019 221.043,77.0089813 C240.837,76.993 256.604,87.242 256.623,110.701 L256.666006,163.666 C256.673,171.914 250.813,178.516 242.384,178.523 C233.954,178.53 228.084,171.938 228.078,163.689 L228.041,118.42 C228.033,108.527 222.163,101.199 212.265,101.207 C202.368,101.215 196.51,108.552 196.518,118.446 L196.554,163.714 C196.561,171.963 190.701,178.565 182.272,178.572004 C173.84,178.578 167.97,171.986 167.964,163.738 L167.906994,93.729" id="Fill-5" fill="#FFFFFE"></path><path d="M162.864,115.469 C162.864,112.111 164.748,109.735 168.271,109.735 C171.794,109.735 173.678,112.111 173.678,115.469 L173.678,127.512 L185.721,127.512 C189.162,127.512 191.455,129.479 191.455,132.919 C191.455,136.36 189.162,138.327 185.721,138.327 L173.678,138.327 L173.678,150.369 C173.678,153.728 171.794,156.104 168.271,156.104 C164.748,156.104 162.864,153.728 162.864,150.369 L162.864,138.327 L150.821,138.327 C147.38,138.327 145.086,135.869 145.086,132.919 C145.086,129.479 147.38,127.512 150.821,127.512 L162.864,127.512 L162.864,115.469" id="Fill-6" fill="#4B8180"></path><path d="M348.657,105.347 L348.657,127.884 L342.271,127.884 L342.271,105.714 C342.271,99.695 338.82,96.318 333.168,96.318 C327.295,96.318 322.523,99.768 322.523,108.43 L322.523,127.884 L316.136,127.884 L316.136,76.497 L322.523,76.497 L322.523,96.465 C325.24,92.134 329.277,90.225 334.416,90.225 C343.005,90.225 348.657,95.95 348.657,105.347" id="Fill-7" fill="#212B4D"></path><path d="M362.017,106.889 L386.536,106.889 C385.435,99.621 380.222,96.244 374.717,96.244 C367.816,96.244 363.045,100.502 362.017,106.889 Z M375.304,122.819 C380.37,122.819 384.04,120.47 385.876,117.46 L391.307,120.543 C388.078,125.535 382.499,128.838 375.158,128.838 C363.339,128.838 355.484,120.543 355.484,109.532 C355.484,98.667 363.265,90.225 374.717,90.225 C385.802,90.225 392.996,99.327 392.996,109.605 C392.996,110.559 392.923,111.514 392.776,112.468 L362.017,112.468 C363.265,119.075 368.477,122.819 375.304,122.819 L375.304,122.819 Z" id="Fill-8" fill="#212B4D"></path><path d="M430.655,109.532 C430.655,102.044 425.002,96.391 417.588,96.391 C410.247,96.391 404.593,102.044 404.593,109.532 C404.593,117.02 410.247,122.672 417.588,122.672 C425.002,122.672 430.655,117.02 430.655,109.532 Z M437.041,91.179 L437.041,127.884 L430.655,127.884 L430.655,121.571 C427.718,126.049 423.02,128.838 416.78,128.838 C406.576,128.838 398.208,120.396 398.208,109.532 C398.208,98.667 406.576,90.225 416.78,90.225 C423.02,90.225 427.718,93.014 430.655,97.493 L430.655,91.179 L437.041,91.179 L437.041,91.179 Z" id="Fill-9" fill="#212B4D"></path><polygon id="Fill-10" fill="#212B4D" points="446.729 127.884 453.116 127.884 453.116 74.295 446.729 74.295"></polygon><path d="M473.083,97.346 L473.083,117.24 C473.083,122.819 476.313,122.452 482.846,122.159 L482.846,127.884 C471.835,129.352 466.696,126.416 466.696,117.24 L466.696,97.346 L459.428,97.346 L459.428,91.179 L466.696,91.179 L466.696,82.81 L473.083,80.902 L473.083,91.179 L482.846,91.179 L482.846,97.346 L473.083,97.346" id="Fill-11" fill="#212B4D"></path><path d="M522.927,105.347 L522.927,127.884 L516.541,127.884 L516.541,105.714 C516.541,99.695 513.09,96.318 507.437,96.318 C501.564,96.318 496.793,99.768 496.793,108.43 L496.793,127.884 L490.406,127.884 L490.406,76.497 L496.793,76.497 L496.793,96.465 C499.509,92.134 503.547,90.225 508.685,90.225 C517.274,90.225 522.927,95.95 522.927,105.347" id="Fill-12" fill="#212B4D"></path><path d="M348.241,156.31 L348.241,179.292 L344.472,179.292 L344.472,156.31 C344.472,149.511 340.555,145.077 333.609,145.077 C326.367,145.077 320.676,149.807 320.676,159.784 L320.676,179.292 L316.982,179.292 L316.982,142.343 L320.676,142.343 L320.676,149.364 C323.485,143.895 328.215,141.531 333.905,141.531 C342.699,141.531 348.241,147.369 348.241,156.31" id="Fill-13" fill="#129489"></path><path d="M359.991,159.119 L389.698,159.119 C388.885,150.103 382.53,145.077 375.288,145.077 C366.863,145.077 360.73,150.915 359.991,159.119 Z M393.541,160.965 C393.541,161.557 393.467,162.148 393.467,162.739 L359.991,162.739 C360.878,171.089 367.233,176.558 375.657,176.558 C381.717,176.558 386.299,173.75 388.442,169.833 L391.693,171.754 C388.664,176.78 382.899,180.105 375.584,180.105 C364.203,180.105 356.148,171.976 356.148,160.818 C356.148,149.954 363.981,141.531 375.288,141.531 C386.52,141.531 393.541,150.841 393.541,160.965 L393.541,160.965 Z" id="Fill-14" fill="#129489"></path><polyline id="Fill-15" fill="#129489" points="449.482 142.343 437.806 179.292 433.742 179.292 423.47 147.812 413.198 179.292 409.134 179.292 397.458 142.343 401.375 142.343 411.203 174.489 421.549 142.343 425.391 142.343 435.737 174.489 445.566 142.343 449.482 142.343"></polyline><path d="M480.298,169.612 C480.298,175.671 474.977,180.105 467.07,180.105 C459.68,180.105 454.802,176.632 453.029,171.903 L456.207,170.055 C457.537,174.045 461.528,176.558 467.07,176.558 C472.243,176.558 476.603,174.267 476.603,169.612 C476.603,159.562 454.212,165.326 454.212,152.024 C454.212,146.186 459.237,141.531 466.774,141.531 C472.76,141.531 477.342,144.412 479.337,148.92 L476.233,150.694 C474.681,146.851 470.839,145.077 466.774,145.077 C461.971,145.077 457.907,147.59 457.907,152.024 C457.907,161.926 480.298,156.088 480.298,169.612" id="Fill-16" fill="#129489"></path></g></g></svg> 